<mxfile host="app.diagrams.net" modified="2022-09-05T01:59:38.517Z" agent="5.0 (Macintosh; Intel Mac OS X 10_15_7) AppleWebKit/605.1.15 (KHTML, like Gecko) Version/15.6 Safari/605.1.15" etag="1CtiHRofNjmvZFXpuxXH" version="20.2.8" type="github">
  <diagram id="ypxdNHGwpCRZbqq2CZ6e" name="Page-1">
    <mxGraphModel dx="1426" dy="720" grid="1" gridSize="10" guides="1" tooltips="1" connect="1" arrows="1" fold="1" page="1" pageScale="1" pageWidth="850" pageHeight="1100" math="0" shadow="0">
      <root>
        <mxCell id="0" />
        <mxCell id="1" parent="0" />
        <mxCell id="HfZOoloGlsrEK1rJAHvE-5" value="" style="group" vertex="1" connectable="0" parent="1">
          <mxGeometry x="365" y="50" width="120" height="60" as="geometry" />
        </mxCell>
        <mxCell id="HfZOoloGlsrEK1rJAHvE-13" value="" style="group" vertex="1" connectable="0" parent="HfZOoloGlsrEK1rJAHvE-5">
          <mxGeometry width="120" height="60" as="geometry" />
        </mxCell>
        <mxCell id="HfZOoloGlsrEK1rJAHvE-3" value="" style="rounded=0;whiteSpace=wrap;html=1;" vertex="1" parent="HfZOoloGlsrEK1rJAHvE-13">
          <mxGeometry width="120" height="60" as="geometry" />
        </mxCell>
        <mxCell id="HfZOoloGlsrEK1rJAHvE-4" value="Fib(6)" style="text;strokeColor=none;fillColor=none;align=left;verticalAlign=middle;spacingLeft=4;spacingRight=4;overflow=hidden;points=[[0,0.5],[1,0.5]];portConstraint=eastwest;rotatable=0;fontSize=20;" vertex="1" parent="HfZOoloGlsrEK1rJAHvE-13">
          <mxGeometry x="25" y="15" width="95" height="30" as="geometry" />
        </mxCell>
        <mxCell id="HfZOoloGlsrEK1rJAHvE-9" value="" style="group" vertex="1" connectable="0" parent="1">
          <mxGeometry x="510" y="150" width="120" height="60" as="geometry" />
        </mxCell>
        <mxCell id="HfZOoloGlsrEK1rJAHvE-10" value="" style="rounded=0;whiteSpace=wrap;html=1;" vertex="1" parent="HfZOoloGlsrEK1rJAHvE-9">
          <mxGeometry width="120" height="60" as="geometry" />
        </mxCell>
        <mxCell id="HfZOoloGlsrEK1rJAHvE-11" value="Fib_1(6)" style="text;strokeColor=none;fillColor=none;align=left;verticalAlign=middle;spacingLeft=4;spacingRight=4;overflow=hidden;points=[[0,0.5],[1,0.5]];portConstraint=eastwest;rotatable=0;fontSize=20;" vertex="1" parent="HfZOoloGlsrEK1rJAHvE-9">
          <mxGeometry x="13" y="15" width="95" height="30" as="geometry" />
        </mxCell>
      </root>
    </mxGraphModel>
  </diagram>
</mxfile>
